<svg width="560" height="240" xmlns="http://www.w3.org/2000/svg" style="background:#f8fafc;border-radius:6px;border:1px solid #e2e8f0;">
    <!-- Grid -->
    <line x1="45" y1="45" x2="515" y2="45" stroke="#e2e8f0" stroke-dasharray="3,3" />
    <line x1="45" y1="120" x2="515" y2="120" stroke="#e2e8f0" stroke-dasharray="3,3" />
    <line x1="45" y1="195" x2="515" y2="195" stroke="#94a3b8" />
    <line x1="45" y1="45" x2="45" y2="195" stroke="#94a3b8" />

    <!-- Y labels -->
    <text x="37" y="49" font-size="9" text-anchor="end" fill="#64748b">100%</text>
    <text x="37" y="124" font-size="9" text-anchor="end" fill="#64748b">50%</text>
    <text x="37" y="195" font-size="9" text-anchor="end" fill="#64748b">0%</text>

    
      <rect x="53" y="183" width="14" height="12" fill="#3b82f6" rx="2" /><rect x="69" y="174" width="14" height="21.000000000000004" fill="#10b981" rx="2" /><rect x="85" y="177" width="14" height="18" fill="#f59e0b" rx="2" /><rect x="101" y="178.5" width="14" height="16.5" fill="#8b5cf6" rx="2" />
      <text x="84" y="225" font-size="10" text-anchor="middle" fill="#475569">U=10</text>
    
      <rect x="147" y="171" width="14" height="24" fill="#3b82f6" rx="2" /><rect x="163" y="151.5" width="14" height="43.5" fill="#10b981" rx="2" /><rect x="179" y="154.5" width="14" height="40.5" fill="#f59e0b" rx="2" /><rect x="195" y="156" width="14" height="39" fill="#8b5cf6" rx="2" />
      <text x="178" y="225" font-size="10" text-anchor="middle" fill="#475569">U=25</text>
    
      <rect x="241" y="159" width="14" height="36" fill="#3b82f6" rx="2" /><rect x="257" y="127.5" width="14" height="67.5" fill="#10b981" rx="2" /><rect x="273" y="132" width="14" height="63" fill="#f59e0b" rx="2" /><rect x="289" y="129" width="14" height="66" fill="#8b5cf6" rx="2" />
      <text x="272" y="225" font-size="10" text-anchor="middle" fill="#475569">U=50</text>
    
      <rect x="335" y="138" width="14" height="57" fill="#3b82f6" rx="2" /><rect x="351" y="99" width="14" height="96" fill="#10b981" rx="2" /><rect x="367" y="103.5" width="14" height="91.5" fill="#f59e0b" rx="2" /><rect x="383" y="100.5" width="14" height="94.5" fill="#8b5cf6" rx="2" />
      <text x="366" y="225" font-size="10" text-anchor="middle" fill="#475569">U=100</text>
    
      <rect x="429" y="117" width="14" height="78" fill="#3b82f6" rx="2" /><rect x="445" y="78" width="14" height="117" fill="#10b981" rx="2" /><rect x="461" y="82.5" width="14" height="112.5" fill="#f59e0b" rx="2" /><rect x="477" y="81" width="14" height="114" fill="#8b5cf6" rx="2" />
      <text x="460" y="225" font-size="10" text-anchor="middle" fill="#475569">U=200</text>
    

    <!-- Legend -->
    <g transform="translate(280, 47)">
      <rect x="0" y="0" width="9" height="9" fill="#3b82f6" rx="1"/>
      <text x="13" y="8" font-size="9" fill="#1e293b">Sys1 (LB)</text>
      <rect x="65" y="0" width="9" height="9" fill="#10b981" rx="1"/>
      <text x="78" y="8" font-size="9" fill="#1e293b">Sys2</text>
      <rect x="115" y="0" width="9" height="9" fill="#f59e0b" rx="1"/>
      <text x="128" y="8" font-size="9" fill="#1e293b">Sys3</text>
      <rect x="165" y="0" width="9" height="9" fill="#8b5cf6" rx="1"/>
      <text x="178" y="8" font-size="9" fill="#1e293b">Sys4</text>
    </g>
  </svg>